<svg width="20" height="20" viewBox="0 0 20 20" xmlns="http://www.w3.org/2000/svg"><path d="M18.15,5.054C18.15,3.89 17.155,2.945 15.93,2.945L3.266,2.945C2.041,2.945 1.047,3.89 1.047,5.054L1.047,14.896C1.047,16.06 2.041,17.005 3.266,17.005L15.93,17.005C17.155,17.005 18.15,16.06 18.15,14.896L18.15,5.054ZM16.045,5.054L16.045,14.896C16.045,14.956 15.994,15.005 15.93,15.005L3.266,15.005C3.203,15.005 3.152,14.956 3.152,14.896C3.152,14.896 3.152,5.054 3.152,5.054C3.152,4.994 3.203,4.945 3.266,4.945L15.93,4.945C15.994,4.945 16.045,4.994 16.045,5.054Z"/></svg>